<svg width="360" height="240" viewBox="0 0 360 240" fill="none" xmlns="http://www.w3.org/2000/svg">
  <defs>
    <linearGradient id="bg" x1="32" y1="20" x2="320" y2="220" gradientUnits="userSpaceOnUse">
      <stop stop-color="#F4F6F8"/>
      <stop offset="1" stop-color="#EEF2F5"/>
    </linearGradient>
    <linearGradient id="gold" x1="224" y1="72" x2="268" y2="116" gradientUnits="userSpaceOnUse">
      <stop stop-color="#D1AF22"/>
      <stop offset="1" stop-color="#C5A100"/>
    </linearGradient>
  </defs>

  <rect x="12" y="12" width="336" height="216" rx="28" fill="url(#bg)"/>
  <rect x="36" y="36" width="196" height="150" rx="20" fill="#FFFFFF"/>
  <rect x="36" y="36" width="196" height="34" rx="20" fill="#1E2A38"/>
  <circle cx="70" cy="54" r="6" fill="#C5A100"/>
  <circle cx="96" cy="54" r="6" fill="#C5A100"/>

  <rect x="54" y="84" width="30" height="20" rx="8" fill="#F4F6F8"/>
  <rect x="92" y="84" width="30" height="20" rx="8" fill="#F4F6F8"/>
  <rect x="130" y="84" width="30" height="20" rx="8" fill="#F4F6F8"/>
  <rect x="168" y="84" width="30" height="20" rx="8" fill="#F4F6F8"/>

  <rect x="54" y="112" width="30" height="20" rx="8" fill="#F4F6F8"/>
  <rect x="92" y="112" width="30" height="20" rx="8" fill="#F4F6F8"/>
  <rect x="130" y="112" width="30" height="20" rx="8" fill="#C5A100" fill-opacity="0.2"/>
  <rect x="168" y="112" width="30" height="20" rx="8" fill="#F4F6F8"/>

  <rect x="54" y="140" width="30" height="20" rx="8" fill="#F4F6F8"/>
  <rect x="92" y="140" width="30" height="20" rx="8" fill="#F4F6F8"/>
  <rect x="130" y="140" width="30" height="20" rx="8" fill="#F4F6F8"/>
  <rect x="168" y="140" width="30" height="20" rx="8" fill="#F4F6F8"/>

  <rect x="252" y="56" width="78" height="120" rx="18" fill="#FFFFFF"/>
  <path d="M291 76V90M284 83H298" stroke="#C5A100" stroke-width="4" stroke-linecap="round"/>
  <rect x="267" y="100" width="48" height="10" rx="5" fill="#1E2A38" fill-opacity="0.15"/>
  <rect x="267" y="116" width="38" height="10" rx="5" fill="#1E2A38" fill-opacity="0.12"/>
  <rect x="267" y="132" width="52" height="10" rx="5" fill="#1E2A38" fill-opacity="0.12"/>

  <circle cx="250" cy="186" r="20" fill="#1E2A38"/>
  <path d="M250 174V186L258 192" stroke="#F4F6F8" stroke-width="3.5" stroke-linecap="round" stroke-linejoin="round"/>
  <circle cx="280" cy="182" r="14" fill="url(#gold)"/>

  <rect x="86" y="192" width="120" height="10" rx="5" fill="#1E2A38" fill-opacity="0.08"/>
</svg>
