<svg width="360" height="240" viewBox="0 0 360 240" fill="none" xmlns="http://www.w3.org/2000/svg">
  <defs>
    <linearGradient id="bg" x1="30" y1="16" x2="330" y2="228" gradientUnits="userSpaceOnUse">
      <stop stop-color="#F4F6F8"/>
      <stop offset="1" stop-color="#EDF1F3"/>
    </linearGradient>
  </defs>

  <rect x="12" y="12" width="336" height="216" rx="28" fill="url(#bg)"/>

  <rect x="34" y="48" width="128" height="144" rx="18" fill="#FFFFFF"/>
  <rect x="52" y="68" width="92" height="12" rx="6" fill="#1E2A38" fill-opacity="0.14"/>
  <rect x="52" y="90" width="76" height="10" rx="5" fill="#1E2A38" fill-opacity="0.11"/>
  <rect x="52" y="108" width="88" height="10" rx="5" fill="#1E2A38" fill-opacity="0.11"/>
  <rect x="52" y="126" width="64" height="10" rx="5" fill="#1E2A38" fill-opacity="0.11"/>
  <circle cx="134" cy="168" r="8" fill="#C5A100"/>

  <circle cx="242" cy="108" r="66" fill="#1E2A38"/>
  <path d="M242 78C225 78 214 90 214 106V122L204 132H280L270 122V106C270 90 259 78 242 78Z" fill="#F4F6F8"/>
  <circle cx="242" cy="138" r="9" fill="#C5A100"/>
  <path d="M222 72L216 64M262 72L268 64M284 104H294M190 104H180" stroke="#C5A100" stroke-width="4" stroke-linecap="round"/>

  <rect x="200" y="162" width="120" height="28" rx="14" fill="#FFFFFF"/>
  <circle cx="220" cy="176" r="7" fill="#C5A100"/>
  <rect x="234" y="170" width="70" height="12" rx="6" fill="#1E2A38" fill-opacity="0.12"/>
</svg>
