<svg width="360" height="240" viewBox="0 0 360 240" fill="none" xmlns="http://www.w3.org/2000/svg">
  <defs>
    <linearGradient id="bg" x1="28" y1="20" x2="328" y2="224" gradientUnits="userSpaceOnUse">
      <stop stop-color="#F4F6F8"/>
      <stop offset="1" stop-color="#ECF0F3"/>
    </linearGradient>
  </defs>

  <rect x="12" y="12" width="336" height="216" rx="28" fill="url(#bg)"/>

  <rect x="32" y="42" width="296" height="156" rx="24" fill="#FFFFFF"/>
  <circle cx="108" cy="120" r="46" fill="#1E2A38"/>
  <circle cx="108" cy="102" r="16" fill="#F4F6F8"/>
  <path d="M80 140C86 126 95 120 108 120C121 120 130 126 136 140V150H80V140Z" fill="#F4F6F8"/>

  <rect x="170" y="78" width="126" height="14" rx="7" fill="#1E2A38" fill-opacity="0.16"/>
  <rect x="170" y="102" width="108" height="12" rx="6" fill="#1E2A38" fill-opacity="0.12"/>
  <rect x="170" y="122" width="116" height="12" rx="6" fill="#1E2A38" fill-opacity="0.12"/>
  <rect x="170" y="142" width="88" height="12" rx="6" fill="#1E2A38" fill-opacity="0.12"/>

  <rect x="84" y="164" width="212" height="22" rx="11" fill="#1E2A38"/>
  <circle cx="270" cy="75" r="16" fill="#C5A100"/>
  <path d="M262 75H278M270 67V83" stroke="#1E2A38" stroke-width="3.2" stroke-linecap="round"/>

  <rect x="250" y="162" width="66" height="26" rx="13" fill="#C5A100" fill-opacity="0.2"/>
  <circle cx="264" cy="175" r="6" fill="#C5A100"/>
  <rect x="274" y="171" width="32" height="8" rx="4" fill="#1E2A38" fill-opacity="0.16"/>
</svg>
