<svg width="360" height="240" viewBox="0 0 360 240" fill="none" xmlns="http://www.w3.org/2000/svg">
  <defs>
    <linearGradient id="bg" x1="36" y1="18" x2="322" y2="222" gradientUnits="userSpaceOnUse">
      <stop stop-color="#F4F6F8"/>
      <stop offset="1" stop-color="#EDF1F4"/>
    </linearGradient>
  </defs>

  <rect x="12" y="12" width="336" height="216" rx="28" fill="url(#bg)"/>

  <rect x="34" y="40" width="204" height="152" rx="20" fill="#FFFFFF"/>
  <rect x="50" y="58" width="172" height="20" rx="10" fill="#1E2A38" fill-opacity="0.08"/>
  <rect x="50" y="88" width="172" height="20" rx="10" fill="#1E2A38" fill-opacity="0.08"/>
  <rect x="50" y="118" width="172" height="20" rx="10" fill="#1E2A38" fill-opacity="0.08"/>
  <rect x="50" y="148" width="172" height="20" rx="10" fill="#1E2A38" fill-opacity="0.08"/>

  <rect x="50" y="58" width="44" height="20" rx="10" fill="#1E2A38"/>
  <rect x="108" y="88" width="52" height="20" rx="10" fill="#C5A100" fill-opacity="0.25"/>
  <rect x="176" y="118" width="40" height="20" rx="10" fill="#1E2A38"/>

  <circle cx="282" cy="80" r="44" fill="#FFFFFF"/>
  <circle cx="282" cy="80" r="32" fill="#1E2A38"/>
  <path d="M282 62V80L294 90" stroke="#C5A100" stroke-width="4.5" stroke-linecap="round" stroke-linejoin="round"/>
  <circle cx="282" cy="80" r="4.5" fill="#F4F6F8"/>

  <rect x="248" y="140" width="92" height="46" rx="14" fill="#1E2A38"/>
  <rect x="258" y="146" width="22" height="34" rx="5" fill="#F4F6F8"/>
  <rect x="282" y="146" width="22" height="34" rx="5" fill="#F4F6F8"/>
  <rect x="306" y="146" width="22" height="34" rx="5" fill="#F4F6F8"/>
  <circle cx="316" cy="140" r="10" fill="#C5A100"/>

  <rect x="80" y="198" width="160" height="9" rx="4.5" fill="#1E2A38" fill-opacity="0.08"/>
</svg>
